<svg id="Capa_1" enable-background="new 0 0 512 512" height="512" viewBox="0 0 512 512" width="512" xmlns="http://www.w3.org/2000/svg"><g><path d="m486.584 342.227c-19.941-26.711-20.993-26.305-34.771-41.999-12.968 14.827-14.872 15.254-34.771 41.999-25.416 35.342-25.416 50.719-25.416 55.772 0 33.188 27 60.188 60.188 60.188s60.188-27 60.188-60.188c-.002-5.054-.002-20.431-25.418-55.772zm-34.772 85.96c-16.646 0-30.188-13.542-30.188-30.188 0-1.789.946-12.031 19.623-38.051 3.641-5.071 7.307-9.832 10.564-13.911 3.258 4.079 6.924 8.84 10.564 13.911 18.679 26.02 19.625 36.262 19.625 38.051 0 16.646-13.542 30.188-30.188 30.188z"/><path d="m260.439 19.384-48.888 48.888h-77.809c-38.854-.892-74.37 33.778-73.492 73.492.057 19.957 8.357 40.173 23.81 54.143l-84.06 84.06 212.649 212.649 260.511-260.511zm-42.531 85.101 55.005 55.005c-3.861 8.072-5.179 17.063-3.971 25.767h-131.806zm-84.167-6.213h47.953l-76.388 76.388c-9.987-8.577-14.873-20.781-15.057-32.896-.511-22.549 19.704-43.984 43.492-43.492zm78.908 351.917-170.223-170.222 68.369-68.369c7.311 2.394 15.03 3.658 22.946 3.658h153.007c13.557 10.055 31.515 11.538 46.366 4.435l55.017 55.017zm122.272-271.118-10.696 10.696c-5.903 5.823-15.442 5.798-21.314-.074-5.868-5.868-5.897-15.397-.087-21.301l10.709-10.709-74.483-74.483 21.389-21.389 170.295 170.294-21.389 21.389z"/></g></svg>